<svg width="37" height="40" viewBox="0 0 46 50" fill="white" xmlns="http://www.w3.org/2000/svg">
    <path d="M46.0002 26.6677C46.0002 32.8559 43.5933 38.7907 39.309 43.1665C35.0246 47.5423 29.2138 50.0006 23.1549 50.0006C17.0959 50.0006 11.2851 47.5423 7.00081 43.1665C2.71648 38.7907 0.30957 32.8559 0.30957 26.6677H6.83876C6.82698 28.8638 7.24033 31.0407 8.05505 33.0732C8.86977 35.1056 10.0698 36.9536 11.5861 38.5108C13.1025 40.068 14.9052 41.3037 16.8907 42.147C18.8762 42.9902 21.0053 43.4243 23.1556 43.4243C25.3059 43.4243 27.435 42.9902 29.4205 42.147C31.406 41.3037 33.2088 40.068 34.7251 38.5108C36.2414 36.9536 37.4415 35.1056 38.2562 33.0732C39.0709 31.0407 39.4843 28.8638 39.4725 26.6677H46.0002Z"/>
    <path d="M39.4716 13.3336H32.9443V20.0001H39.4716V13.3336Z"/>
    <path d="M13.3642 13.3336H6.83594V20.0001H13.3642V13.3336Z"/>
    <path d="M45.9997 0V6.67004H26.4165V26.6712H19.8859V6.67004H0.311523V0H45.9997Z"/>
</svg>
