<svg width="87" height="88" viewBox="0 0 87 88" fill="none" xmlns="http://www.w3.org/2000/svg">
<g clip-path="url(#clip0_226_10462)">
<rect x="5" y="5" width="77" height="78" rx="38.5" fill="white"/>
<ellipse cx="43.5048" cy="31.502" rx="17.6532" ry="17.6144" fill="#06D3F4"/>
<path d="M43.4358 53.1759C36.8159 53.286 32.0348 50.5154 30.4717 49.1163C27.4836 49.8503 20.3211 53.286 15.5768 61.1574C10.8325 69.0288 9.04882 77.3269 8.75 80.4919C14.4735 81.9369 29.4236 84.8267 43.4358 84.8267C57.4481 84.8267 72.582 81.9369 78.3975 80.4919C78.0757 76.9599 76.246 68.1481 71.5017 61.1574C66.7574 54.1667 59.3191 50.2172 56.193 49.1163C54.6989 50.4237 50.0558 53.0658 43.4358 53.1759Z" fill="#06D3F4"/>
</g>
<rect x="2.5" y="2.5" width="82" height="83" rx="41" stroke="#4C31BC" stroke-width="5"/>
<defs>
<clipPath id="clip0_226_10462">
<rect x="5" y="5" width="77" height="78" rx="38.5" fill="white"/>
</clipPath>
</defs>
</svg>
